{"title":"High Crimes 2002 DVDRip Xvid AC3 LKRG","uid":10141143,"size":941070094,"categoryP":"video","categoryS":"movies","magnet":"?xt=urn:btih:fdd3c960829d23893626e4f51ca92004efe503f3&amp;dn=High+Crimes+2002+DVDRip+Xvid+AC3+LKRG&amp;tr=udp%3A%2F%2Ftracker.openbittorrent.com%3A80&amp;tr=udp%3A%2F%2Fopen.demonii.com%3A1337&amp;tr=udp%3A%2F%2Ftracker.coppersurfer.tk%3A6969&amp;tr=udp%3A%2F%2Fexodus.desync.com%3A6969","seeders":0,"leechers":1,"uploader":".BONE.","files":2,"time":1399998973,"description":"Runtime ..........: 1h 55mn\nFile Size ........: 897 MiB\nResolution .......: 640 x 272 &lt;a href=&quot;\nhttp://www.imdb.com/title/tt0257756/&quot; rel=&quot;nofollow&quot; target=&quot;_NEW&quot;&gt;\nhttp://www.imdb.com/title/tt0257756/&lt;/a&gt;\nGenre ............: Crime,Drama,Mystery\nLanguage .........: English\nSubtitles ........: None\nComplete name : High Crimes 2002 DVDRip Xvid AC3 LKRGHighC_LKRG.avi\nFormat : AVI\nFormat/Info : Audio Video Interleave\nFile size : 897 MiB\nDuration : 1h 55mn\nOverall bit rate : 1 090 Kbps\nWriting application : VirtualDubMod 1.5.10.2 (build 2540/release)\nWriting library : VirtualDubMod build 2540/release\nVideo\nID : 0\nFormat : MPEG-4 Visual\nFormat profile : Advanced Simple@L5\nFormat settings, BVOP : 2\nFormat settings, QPel : No\nFormat settings, GMC : No warppoints\nFormat settings, Matrix : Default (H.263)\nMuxing mode : Packed bitstream\nCodec ID : XVID\nCodec ID/Hint : XviD\nDuration : 1h 55mn\nBit rate : 856 Kbps\nWidth : 640 pixels\nHeight : 272 pixels\nDisplay aspect ratio : 2.35:1\nFrame rate : 23.976 fps\nColor space : YUV\nChroma subsampling : 4:2:0\nBit depth : 8 bits\nScan type : Progressive\nCompression mode : Lossy\nBits/(Pixel*Frame) : 0.205\nStream size : 705 MiB (79%)\nWriting library : XviD 1.2.1 (UTC 2008-12-04)\nAudio\nID : 1\nFormat : AC-3\nFormat/Info : Audio Coding 3\nMode extension : CM (complete main)\nFormat settings, Endianness : Big\nCodec ID : 2000\nDuration : 1h 55mn\nBit rate mode : Constant\nBit rate : 224 Kbps\nChannel(s) : 2 channels\nChannel positions : Front: L R\nSampling rate : 48.0 KHz\nBit depth : 16 bits\nCompression mode : Lossy\nStream size : 185 MiB (21%)\nAlignment : Split accross interleaves\nInterleave, duration : 42 ms (1.00 video frame)\nInterleave, preload duration : 500 ms\n","torrent":{"xt":"urn:btih:fdd3c960829d23893626e4f51ca92004efe503f3","amp;dn":"High+Crimes+2002+DVDRip+Xvid+AC3+LKRG","amp;tr":["udp%3A%2F%2Ftracker.openbittorrent.com%3A80","udp%3A%2F%2Fopen.demonii.com%3A1337","udp%3A%2F%2Ftracker.coppersurfer.tk%3A6969","udp%3A%2F%2Fexodus.desync.com%3A6969"],"infoHash":"fdd3c960829d23893626e4f51ca92004efe503f3","infoHashBuffer":{"type":"Buffer","data":[253,211,201,96,130,157,35,137,54,38,228,245,28,169,32,4,239,229,3,243]},"announce":[],"urlList":[]}}